<svg version="1" xmlns="http://www.w3.org/2000/svg" width="449.333" height="449.333" viewBox="0 0 337.000000 337.000000"><path d="M32.8 138.7c-2.4.6-2.3 1.9.2 2.6 1.9.5 2 1.4 2 15.6 0 12.6-.3 15.3-1.5 15.7-3.3 1.3-1.2 2.4 4.5 2.4 5.9 0 7.9-1.3 4-2.5-1.9-.6-2.1-1.4-1.8-8.3.3-7.1.5-7.7 3-9.2 4.1-2.3 6.1.2 6.6 8.4.4 5.5.1 6.7-1.7 8.5-1.2 1.2-2.1 2.3-2.1 2.6 0 .3 2.7.5 6 .5 6.3 0 7.3-.7 4-2.8-1.7-1.1-2-2.3-2-9.6 0-6.8-.3-8.6-1.8-9.9-2.3-2.1-7.1-2.2-10-.1l-2.2 1.5V138l-2.7.1c-1.6.1-3.6.3-4.5.6zM92 139.8c0 1.4.9 2.1 3.1 2.6 1.7.3 4.4 1.9 6 3.5l2.9 2.9v22.6c0 14.8-.4 23.4-1.1 25-.8 1.6-2.7 3-5.3 3.9-2.3.8-4.1 2-4.1 2.8 0 1.1 2.7 1.5 13.8 1.7 12.8.2 13.7.1 13.7-1.6 0-1.3-1.2-2.2-4-3.1-6.9-2-7.3-3.6-7.8-26.7-.3-11.4-.1-20.4.4-20.4.5.1 9.7 12 20.4 26.6 15.5 21 19.9 26.4 21.5 26.2 1.9-.3 2-1.2 2.5-30.1.6-33.2.2-31.9 7.7-33.3 2.3-.4 3.3-1.2 3.3-2.5 0-1.8-.9-1.9-14-1.9-12.8 0-14 .2-14 1.8 0 1.3 1.3 2.1 4.5 3 2.7.7 4.9 2 5.7 3.4 1.8 3.1 2.5 41.8.8 40.2-.7-.7-9-11.7-18.5-24.5l-17.2-23.4-10.2-.3c-9.4-.2-10.1-.1-10.1 1.6z"/><path d="M19 147.4c0 2.8-.4 3.5-2.2 3.8-2.8.4-3.6 2.8-.9 2.8 1.9 0 2.1.6 2.2 7.7.2 12 .5 12.8 6.4 12.8 3 0 5-.5 5.3-1.3.2-.7-.6-1.2-2.2-1.2-3.6 0-4.7-2.9-4.4-10.8l.3-6.7 3.3-.3c4.2-.4 3.7-2.6-.6-3-2.9-.3-3.2-.6-3.2-3.8 0-2.7-.4-3.4-2-3.4s-2 .7-2 3.4zM64.7 153.1c-7.3 5.6-4.6 20.1 4.1 22.2 5 1.2 14.1-3.8 11.6-6.3-.7-.7-1.7-.4-2.9 1-2.1 2.3-7.7 2.7-9.4.6-.7-.8-1.6-2.8-2.1-4.5l-.9-3.1h7.4c4.1 0 7.6-.4 7.9-.8 1-1.6-1.5-8.1-3.7-9.7-3.1-2.2-8.9-1.9-12 .6zm9.1 1.1c.7.7 1.2 2.2 1.2 3.5 0 2.1-.5 2.3-4.5 2.3-3.5 0-4.5-.4-4.5-1.7 0-3.9 5.2-6.7 7.8-4.1zM181.5 158.8c-8.3 3.9-12.8 11.9-12.8 22.9.1 15.4 8.2 24.3 22.2 24.3 6 0 12.5-3.3 16.5-8.3 2.5-3.2 2.8-4 1.6-4.7-2.4-1.5-3.6-1.2-4.9 1.3-2.9 5.4-12.3 7.5-18.2 4-3.5-2.1-6.8-8.5-7.2-13.9l-.2-3.9 15.4-.3 15.4-.3-.6-5.3c-1.1-10.9-6.7-16.6-16.9-17.3-4.8-.3-7.3.1-10.3 1.5zm13.3 4.4c2.4 2.7 4.2 7 4.2 10.4 0 2.4 0 2.4-10.6 2.4h-10.6l.7-3.3c2.2-10 11-15.1 16.3-9.5zM294.1 158.7c-8.8 4.4-9.5 17.1-1.3 22.9 1.2.8 4.8 2.4 7.9 3.5 3.1 1 6.8 2.6 8.1 3.5 6.8 4.4 3.2 13.4-5.5 13.4-3.9 0-9-3.7-11.9-8.6-1.7-2.9-3.3-4.4-4.6-4.4-1.6 0-1.9.5-1.4 2.2.3 1.3.6 4.9.6 8 0 5 .3 5.8 1.9 5.8 1.1 0 2.1-.5 2.3-1.2.3-.8 1.6-.7 4.6.5 8.5 3.4 17.5 1.7 22.5-4.2 2.2-2.7 2.7-4.2 2.7-8.6 0-7.5-2.7-10.5-13.3-14.5-4.5-1.7-9-4-10.1-5-4.1-4-.8-11 5.3-11 3.8 0 8.9 3.5 10.8 7.5 1 2.1 2.4 3.5 3.5 3.5 1.5 0 1.8-.8 1.8-4.4 0-7-1-10.6-3-10.6-1 0-2 .5-2.2 1-.2.7-1.5.7-3.8 0-5.1-1.5-11-1.2-14.9.7zM211 159.7c.1 1 1.5 2.7 3.3 3.8 2.9 1.8 3.7 3.6 9.7 21.8 6.2 19.2 6.5 19.8 8.9 19.5 2.3-.3 3.1-1.7 8.1-15.5 3-8.3 5.8-15.4 6.1-15.8.4-.3 3.2 6.7 6.4 15.5 5.4 14.9 6 16.1 8.2 15.8 2-.3 3-2.3 8.7-19.1 6.1-18.1 9-23.7 12.3-23.7.7 0 1.3-.9 1.3-2 0-1.9-.7-2-9-2-8.2 0-9 .2-9 1.9 0 1.2.9 2.1 2.5 2.5 1.4.4 2.8 1.3 3.1 2.1.6 1.4-6.1 23.2-7.5 24.7-.4.4-3.2-6.1-6.2-14.5-5-13.8-5.8-15.2-8.1-15.5-2.4-.3-2.8.4-8.4 16l-5.8 16.3-3.7-11.8c-5.5-17.4-5.3-16.6-2.4-17.3 1.6-.4 2.5-1.3 2.5-2.5 0-1.7-.9-1.9-10.5-1.9-9.3 0-10.5.2-10.5 1.7z"/></svg>